<?xml version="1.0" standalone="no"?>
<!DOCTYPE svg PUBLIC "-//W3C//DTD SVG 20010904//EN"
 "http://www.w3.org/TR/2001/REC-SVG-20010904/DTD/svg10.dtd">
<svg version="1.0" xmlns="http://www.w3.org/2000/svg"
 width="1244.000000pt" height="1280.000000pt" viewBox="0 0 1244.000000 1280.000000"
 preserveAspectRatio="xMidYMid meet">
<metadata>
Created by potrace 1.15, written by Peter Selinger 2001-2017
</metadata>
<g transform="translate(0.000000,1280.000000) scale(0.100000,-0.100000)"
fill="#ffeb3b" stroke="none">
<path d="M4900 12745 c-233 -66 -449 -116 -868 -201 l-332 -67 -7 -36 c-11
-57 -6 -152 11 -200 22 -60 83 -139 143 -185 l50 -38 7 -76 c11 -135 7 -1396
-5 -1430 -10 -28 -19 -34 -92 -57 -168 -53 -289 -68 -557 -68 -217 1 -262 4
-395 26 -82 15 -180 29 -216 33 -64 6 -67 5 -102 -26 -60 -52 -61 -127 -3
-165 13 -9 66 -23 118 -32 95 -15 285 -15 939 3 164 5 236 3 263 -6 70 -23
123 -98 164 -232 34 -109 44 -186 43 -338 0 -243 -61 -525 -180 -835 -25 -66
-35 -71 -103 -51 -68 20 -138 80 -231 199 -209 267 -461 410 -722 411 -448 1
-721 -446 -691 -1129 4 -82 16 -271 28 -420 16 -196 22 -357 22 -585 1 -358
-11 -458 -80 -670 -76 -237 -180 -391 -301 -448 -54 -25 -67 -27 -183 -27
-124 1 -126 1 -275 53 -256 88 -385 109 -505 81 -60 -13 -207 -86 -303 -149
-248 -164 -427 -432 -513 -768 -38 -146 -26 -222 36 -222 42 0 76 48 105 148
97 328 160 445 334 617 l81 79 -69 -134 c-133 -259 -191 -443 -212 -671 -14
-148 0 -361 27 -429 29 -72 88 -100 133 -62 33 26 39 72 29 232 -16 257 12
460 86 632 33 77 128 250 133 244 2 -2 -10 -36 -27 -76 -38 -93 -64 -182 -86
-295 -21 -109 -24 -364 -6 -475 20 -121 63 -303 78 -331 24 -47 94 -57 137
-21 24 21 22 54 -13 222 -54 260 -60 470 -19 661 16 75 21 53 8 -37 -14 -101
-6 -314 20 -464 23 -138 88 -422 107 -468 22 -53 105 -79 152 -46 28 19 28 44
-3 133 -39 117 -75 292 -84 417 -18 231 16 443 125 792 38 124 40 125 109 93
50 -22 91 -69 105 -119 25 -93 4 -206 -91 -485 -50 -146 -60 -185 -54 -215 11
-58 31 -99 58 -117 58 -37 106 30 213 294 95 234 102 428 22 585 -19 37 -19
38 -1 31 99 -44 161 -57 244 -53 72 3 97 9 152 36 148 73 284 253 410 542 246
564 319 1111 240 1793 -21 184 -24 513 -5 602 25 116 57 201 97 259 188 275
565 146 905 -309 95 -128 143 -173 207 -196 l32 -11 -123 -246 c-240 -480
-365 -811 -451 -1192 -117 -515 -126 -1091 -23 -1394 70 -206 156 -335 353
-532 163 -162 220 -241 274 -374 94 -235 134 -493 134 -855 0 -240 -11 -372
-49 -625 -83 -542 -292 -1201 -521 -1640 -48 -91 -119 -228 -158 -306 -72
-142 -138 -319 -150 -406 l-7 -48 120 0 119 0 144 -59 144 -59 220 -10 c121
-6 346 -8 500 -5 251 4 323 2 695 -27 395 -30 433 -31 775 -25 l360 6 305 -44
c168 -25 307 -43 309 -41 2 2 -3 84 -12 181 -43 466 -32 633 78 1226 174 940
204 1432 119 1947 -25 151 -89 387 -144 537 -226 604 -735 1227 -1470 1798
-204 159 -250 210 -300 340 -20 51 -24 78 -24 175 0 189 34 291 224 675 121
244 176 388 221 578 13 53 26 97 29 97 4 0 37 -23 74 -51 148 -112 297 -188
454 -232 67 -18 104 -21 277 -21 208 -1 296 8 505 50 428 85 891 284 1158 496
172 137 292 367 349 671 13 71 17 149 18 347 0 425 -45 679 -161 913 -92 183
-141 244 -454 562 -135 138 -261 269 -278 292 l-32 41 116 56 c272 131 422
273 533 507 85 178 122 370 87 453 -20 49 -65 86 -102 86 -49 0 -86 -50 -113
-151 -51 -193 -66 -238 -107 -326 -51 -106 -111 -173 -197 -218 -31 -16 -58
-27 -61 -24 -3 3 17 56 44 119 84 197 103 275 104 425 1 145 -11 187 -66 226
-64 46 -159 29 -200 -35 -16 -26 -18 -41 -12 -96 4 -36 7 -110 7 -165 1 -98
-8 -138 -69 -315 -3 -8 -16 17 -28 55 -69 216 -196 373 -404 498 -106 64 -149
75 -199 51 -58 -29 -86 -77 -81 -142 6 -67 31 -95 141 -153 237 -127 347 -254
347 -400 0 -73 -24 -169 -43 -169 -7 0 -61 44 -122 97 -214 188 -282 225 -415
227 -283 3 -499 -265 -460 -571 16 -123 63 -233 112 -262 l30 -19 -48 -22
c-291 -131 -623 -260 -671 -260 -15 0 -34 4 -42 9 -8 5 -21 56 -32 125 -11 64
-41 215 -68 334 -68 299 -75 355 -68 554 7 178 0 260 -49 578 -24 156 -98 478
-112 491 -4 4 -90 -17 -192 -46z m1729 -1165 c62 -30 165 -104 207 -152 16
-17 23 -42 28 -93 4 -39 15 -111 25 -160 l19 -90 -60 -95 c-118 -186 -189
-247 -275 -237 -53 6 -102 42 -147 109 l-35 51 22 29 c14 19 21 42 20 71 -1
23 -2 58 -2 77 0 19 -19 85 -42 145 -68 178 -62 264 22 339 35 33 45 36 97 36
43 0 73 -8 121 -30z m669 -607 c228 -212 394 -384 460 -478 200 -283 305 -667
306 -1120 0 -225 -14 -326 -65 -473 -77 -221 -179 -328 -473 -501 -409 -240
-811 -362 -1193 -361 -332 1 -561 89 -774 298 l-88 87 19 140 c34 247 92 905
91 1035 0 169 -11 224 -115 563 -38 124 -44 182 -23 209 6 9 62 45 122 81 61
35 184 108 275 161 172 101 326 180 373 192 24 5 27 3 27 -18 0 -75 60 -166
132 -202 144 -72 348 8 565 222 66 65 164 191 198 255 11 20 21 37 23 37 2 0
65 -57 140 -127z m-2086 -972 c72 -63 98 -156 98 -346 0 -315 -86 -447 -215
-333 -54 46 -75 97 -86 201 -19 186 27 403 103 485 29 30 61 28 100 -7z m-467
-155 c31 -31 42 -77 50 -206 16 -243 -40 -378 -138 -337 -43 18 -83 67 -99
120 -8 25 -13 94 -13 167 0 109 3 132 23 175 34 74 68 105 114 105 28 0 46 -7
63 -24z"/>
<path d="M7319 4254 c-22 -27 -22 -133 0 -434 48 -663 51 -790 24 -1113 -14
-173 -15 -228 -6 -330 32 -341 152 -539 421 -697 39 -23 72 -44 72 -47 0 -8
-129 -341 -185 -477 -115 -281 -230 -531 -329 -715 -31 -58 -56 -108 -56 -113
0 -8 353 -188 370 -188 5 0 10 13 10 29 0 111 52 392 106 581 52 179 285 800
300 800 3 0 23 -9 45 -21 47 -23 156 -49 213 -49 32 0 37 -3 31 -17 -57 -147
-345 -1318 -327 -1334 7 -6 316 -69 338 -69 7 0 13 51 17 148 15 355 98 755
244 1177 l38 110 265 3 c339 4 836 -12 1183 -39 149 -11 273 -21 274 -22 1 -2
-4 -27 -12 -57 -29 -113 -87 -404 -139 -700 -84 -473 -100 -580 -90 -589 5 -4
65 -23 133 -41 120 -31 125 -31 138 -13 24 31 71 199 119 417 108 494 164 701
232 849 l36 79 44 -7 c58 -9 255 -64 265 -75 5 -4 -14 -77 -41 -161 -62 -189
-107 -349 -165 -584 -46 -185 -120 -526 -115 -530 5 -5 242 -25 245 -21 2 2
12 59 23 127 25 159 51 284 100 478 64 256 170 604 191 631 70 89 82 112 110
204 55 179 80 206 271 290 244 109 432 269 540 461 123 218 198 519 185 740
-12 187 -57 295 -168 399 -114 109 -288 179 -473 192 -111 8 -219 -15 -326
-67 -207 -102 -331 -307 -331 -550 0 -95 11 -150 46 -219 65 -127 261 -220
475 -223 91 -2 98 0 170 35 94 46 201 142 237 212 37 73 43 169 14 230 -51
105 -249 236 -369 244 -50 3 -63 0 -104 -27 -80 -51 -138 -147 -138 -228 0
-54 18 -90 64 -131 65 -56 150 -51 182 11 15 29 15 31 -15 74 -37 52 -39 75
-9 102 52 49 143 39 204 -23 97 -96 57 -221 -93 -292 -134 -63 -357 -30 -451
67 -62 63 -80 200 -42 321 56 183 198 272 430 271 272 -2 426 -119 491 -371
39 -153 15 -343 -64 -515 -115 -249 -278 -356 -544 -357 -150 0 -705 80 -1003
145 -114 25 -922 193 -1010 210 -47 9 -92 18 -102 21 -14 4 -17 25 -20 142 -3
124 -6 142 -30 195 l-28 59 62 106 c64 112 124 208 353 562 216 334 283 478
243 518 -19 19 -79 14 -134 -12 -60 -28 -194 -158 -456 -441 -97 -104 -235
-248 -307 -320 l-130 -129 -83 2 c-284 7 -1109 40 -1113 44 -2 2 -60 131 -130
288 -140 315 -206 475 -255 623 -37 113 -76 167 -120 167 -15 0 -34 -7 -41
-16z m717 -1405 l21 -7 -36 -180 c-20 -99 -39 -184 -43 -187 -11 -12 -71 31
-129 92 -55 57 -124 163 -153 235 l-16 36 32 7 c102 23 270 25 324 4z m279
-253 c25 -49 44 -91 41 -93 -9 -9 -141 -50 -148 -46 -5 2 -8 73 -8 156 l1 152
35 -40 c19 -22 55 -80 79 -129z m525 129 c0 -11 -122 -311 -130 -318 -14 -16
-95 35 -164 105 -66 66 -68 69 -51 87 39 44 199 112 290 124 53 7 55 7 55 2z
m224 -60 c51 -30 136 -117 161 -165 17 -33 17 -34 -6 -53 -41 -34 -126 -68
-209 -84 -44 -9 -82 -14 -85 -12 -3 4 57 285 70 327 6 18 21 15 69 -13z"/>
</g>
</svg>
